<?xml version="1.0" standalone="no"?>
<!DOCTYPE svg PUBLIC "-//W3C//DTD SVG 1.1//EN" "http://www.w3.org/Graphics/SVG/1.1/DTD/svg11.dtd" >
<!--
2013-9-30: Created.
-->
<svg>
<metadata>
Created by iconfont
</metadata>
<defs>

<font id="iconfont" horiz-adv-x="1024" >
  <font-face
    font-family="iconfont"
    font-weight="500"
    font-stretch="normal"
    units-per-em="1024"
    ascent="896"
    descent="-128"
  />
    <missing-glyph />
    
    <glyph glyph-name="x" unicode="x" horiz-adv-x="1001"
d="M281 543q-27 -1 -53 -1h-83q-18 0 -36.5 -6t-32.5 -18.5t-23 -32t-9 -45.5v-76h912v41q0 16 -0.5 30t-0.5 18q0 13 -5 29t-17 29.5t-31.5 22.5t-49.5 9h-133v-97h-438v97zM955 310v-52q0 -23 0.5 -52t0.5 -58t-10.5 -47.5t-26 -30t-33 -16t-31.5 -4.5q-14 -1 -29.5 -0.5
t-29.5 0.5h-32l-45 128h-439l-44 -128h-29h-34q-20 0 -45 1q-25 0 -41 9.5t-25.5 23t-13.5 29.5t-4 30v167h911zM163 247q-12 0 -21 -8.5t-9 -21.5t9 -21.5t21 -8.5q13 0 22 8.5t9 21.5t-9 21.5t-22 8.5zM316 123q-8 -26 -14 -48q-5 -19 -10.5 -37t-7.5 -25t-3 -15t1 -14.5
t9.5 -10.5t21.5 -4h37h67h81h80h64h36q23 0 34 12t2 38q-5 13 -9.5 30.5t-9.5 34.5q-5 19 -11 39h-368zM336 498v228q0 11 2.5 23t10 21.5t20.5 15.5t34 6h188q31 0 51.5 -14.5t20.5 -52.5v-227h-327z" />
    

    
    <glyph glyph-name="icon" unicode="&#58886;" d="M304.503808 348.735232c0 66.285568-53.705728 120.0384-120.04864 120.0384-66.244608 0-120.04864-53.751808-120.04864-120.0384 0-66.28864 53.804032-120.039424 120.04864-120.039424C250.797056 228.695808 304.503808 282.446592 304.503808 348.735232zM632.467456 348.735232c0 66.285568-53.706752 120.0384-120.04864 120.0384-66.244608 0-120.049664-53.751808-120.049664-120.0384 0-66.28864 53.805056-120.039424 120.049664-120.039424C578.760704 228.695808 632.467456 282.446592 632.467456 348.735232zM960.429056 348.735232c0 66.285568-53.706752 120.0384-120.04864 120.0384-66.244608 0-120.04864-53.751808-120.04864-120.0384 0-66.28864 53.804032-120.039424 120.04864-120.039424C906.722304 228.695808 960.429056 282.446592 960.429056 348.735232z"  horiz-adv-x="1024" />

    
    <glyph glyph-name="huodong" unicode="&#58968;" d="M761.769089 514.273155c-34.986839 11.882632-166.886915-9.395998-249.103428 50.65161C387.032312 673.927341 296.381709 686.082172 234.480894 681.163139c-61.896722-4.916986-93.711312-57.267285-93.711312-57.267285l0.113587-0.255827c-8.312316-14.417361-10.831696-32.481785-5.449106-49.796126l191.248765-615.09503c9.694803-31.18321 41.320081-48.100508 70.635757-37.785581 29.310559 10.313903 45.216831 43.954071 35.517935 75.141374l-50.79078 163.356508c63.662949 47.206138 147.913794 8.378831 174.954661-0.068562 29.562293-9.239432 334.405209-179.211615 334.405209-11.086499C891.407658 316.431228 810.72508 497.645452 761.769089 514.273155zM500.872057 269.573013c-22.366404 5.406127-101.144608 33.034371-151.711284-4.333702l-98.833983 317.870628c53.780881 5.614881 140.895961-37.832653 221.62254-91.975784 63.945381-36.099173 197.2392-42.027186 224.453005-49.170886 38.0762-9.996678 95.238085-120.070656 95.238085-221.143633C791.641443 119.748706 523.864724 264.022601 500.872057 269.573013z"  horiz-adv-x="1024" />

    
    <glyph glyph-name="qq" unicode="&#58925;" d="M550.744931 61.193966 550.744931 61.193966c-11.183713 0-16.754592 0-22.327518 0-5.53404 0-11.144828 0-16.718777 0l-5.572926 0c-5.571902 0-16.717753 0-22.289656-5.53404-22.290679-22.326495-61.298088-33.475416-111.453395-33.475416-33.434483 0-61.298088 5.610788-89.163739 16.7198-22.289656 11.143805-33.435507 22.326495-33.435507 39.009456 0 16.717753 11.143805 27.862581 39.009456 39.045271 16.717753 5.535063 22.289656 11.106965 22.289656 22.326495 0 11.106965 0 22.25384-5.572926 27.863604-11.144828 11.034311-16.718777 27.788903-27.863604 38.896892-5.572926 11.144828-16.71673 16.755616-27.861558 16.755616l0 0c-11.144828 0-16.717753-5.608741-27.863604-11.220552-11.143805-11.106965-16.717753-16.644075-22.290679-16.644075l0 0c-5.572926 0-11.106965 16.644075-11.106965 44.505633 0 27.863604 5.535063 61.336974 11.070126 94.810343 11.145851 33.398668 27.862581 61.261249 55.725162 89.124853 5.574972 5.535063 11.146874 16.717753 11.146874 27.863604 0 5.53404 0 5.53404 0 11.106965 0 16.755616 5.571902 33.435507 16.71673 50.154283 5.573949 5.572926 5.573949 11.143805 5.573949 16.717753l0 5.573949c0.035816 66.908876 22.288632 122.635061 72.480778 172.789345 44.582381 50.191122 100.30652 72.444962 167.180604 72.444962 66.872037 0 122.600269-22.290679 172.751482-72.444962 44.618197-50.154283 72.480778-105.880469 72.480778-172.715667 0 0 0 0 0-5.572926 0-5.573949 0-11.144828 5.536087-16.717753 11.141758-16.718777 16.717753-33.398668 16.717753-50.154283 0-5.572926 0-5.572926 0-11.106965 0-11.144828 0-22.326495 11.143805-27.862581 27.863604-27.862581 44.581358-55.726186 55.726186-89.124853 11.144828-33.474392 16.717753-66.944691 11.144828-94.810343 0-27.862581-5.573949-38.97057-16.681938-44.50768-5.573949 0-11.183713 5.535063-22.328541 16.645099-5.533017 5.572926-16.718777 11.219529-27.861558 11.219529l-5.536087 0c-11.184737 0-22.325471-5.606695-27.861558-16.753569-5.573949-16.71673-16.754592-27.863604-27.863604-38.969547-5.572926-5.608741-11.18269-16.754592-5.572926-27.863604 0-11.220552 11.145851-16.753569 16.682961-22.326495 27.826765-11.219529 39.010479-22.364357 39.010479-39.08211 0-16.680914-11.183713-27.863604-33.43653-39.008432-22.289656-11.106965-55.724139-16.7198-89.164762-16.7198-50.15326 0-83.58979 11.184737-111.452371 33.474392 5.571902 0-5.572926 5.572926-11.106965 5.572926l0 0L550.744931 61.193966zM678.880263-44.724365c55.726186 0 100.30652 11.143805 133.74305 33.398668 33.435507 22.326495 55.724139 50.191122 55.724139 89.163739 0 22.291702-5.53404 39.046295-16.678868 55.726186 5.571902 0 16.678868 0 22.287609 5.608741 33.435507 11.106965 50.15633 38.97057 55.727209 83.591837 5.571902 38.9675 0 83.58979-16.681938 133.706211-11.18269 39.046295-33.435507 72.444962-61.297065 105.880469l0 0c0 27.862581-5.573949 50.154283-16.7198 78.015841 0 83.590813-27.861558 156.034752-89.124853 217.370703C684.450119 819.036118 612.004133 846.901769 528.418436 846.901769c-83.590813 0-156.034752-27.862581-217.334887-89.124853-55.764048-61.33595-89.163739-133.781936-89.163739-217.370703-11.143805-22.290679-16.717753-50.154283-16.717753-78.016865l0-5.571902c-33.434483-27.863604-50.154283-66.87306-61.298088-100.305497-16.718777-50.118468-22.290679-94.737688-16.718777-133.708258 5.573949-44.61922 27.863604-72.482825 55.726186-83.590813 5.572926 0 16.718777-5.608741 22.290679-5.608741-11.144828-16.681938-16.718777-33.43653-16.718777-55.726186 0-33.435507 16.718777-66.872037 55.727209-89.163739 33.435507-22.291702 78.015841-33.435507 128.169101-33.435507 55.725162 0 105.880469 11.142781 139.316999 39.007409l27.863604 0c39.045271-27.862581 83.590813-39.007409 139.316999-39.007409l0 0L678.880263-44.724365z"  horiz-adv-x="1024" />

    
    <glyph glyph-name="fangzi-copy" unicode="&#58880;" d="M969.5 323.443l-468.75 363.867-468.75-363.867v148.359l468.75 363.867 468.75-363.867zM852.313 336.656v-351.563h-234.375v234.375h-234.375v-234.375h-234.375v351.563l351.563 263.672z"  horiz-adv-x="1000" />

    
    <glyph glyph-name="dianzan" unicode="&#58910;" d="M631.647007 533.343353l0-0.00921c0.01842 0.194428 0.026606 0.37146 0.034792 0.548492L631.647007 533.343353zM836.008418 422.022988c-21.369703 38.869263-54.067406 60.83453-98.629321 62.909795-26.978445 1.254573-54.052057 0.487094-81.081667 0.627287-1.206478 0.008186-2.409886 0.004093-3.672646 0.004093 0.059352 0.6191 0.067538 0.954745 0.130983 1.279133 3.826142 19.290345 6.208399 38.765909 7.806803 58.356083 1.51961 18.59552 2.558265 37.222763 2.882654 55.866379 0.275269 16.064884 1.802042 32.230052-0.515746 48.187489-4.205788 28.919656-19.566638 50.585095-45.704948 63.572898-28.633131 14.230096-57.125045 12.359492-83.975577-4.912893-19.96982-12.851703-32.030507-31.531134-36.570917-54.954613-1.930979-9.953699-1.514493-20.014846-1.482771-30.051433 0.083911-26.758434-4.828982-52.557006-17.328667-76.244498-32.41834-61.427024-83.575464-93.305059-153.204287-94.603635-26.909883-0.500397-53.839209-0.092098-80.757279-0.072655-7.981788 0.004093-15.836687-0.931209-23.37129-3.601015-28.580942-10.129708-46.041616-34.912138-46.052872-65.447595-0.032746-89.027639-0.004093-178.055279-0.016373-267.082918 0-9.134031 1.211595-18.104333 4.89652-26.473955 11.276834-25.615401 30.774911-40.860617 58.896388-42.028209 29.103852-1.206478 58.296731-0.407276 87.448678-0.455371 2.797719-0.004093 5.559623 0.415462 8.094352 1.746784 7.03523 3.701299 9.530051 9.781784 9.525957 17.432021-0.039909 114.498754-0.028653 228.992391-0.008186 343.491145 0.004093 3.097548-1.287319 7.123234 0.543376 9.033747 1.606591 1.679245 5.64865 1.003863 8.606005 1.407046 31.311123 4.27742 60.271712 14.886035 86.461187 32.634258 38.115086 25.822109 64.716954 60.534701 79.574337 104.161315 7.858992 23.072485 10.816347 46.864354 10.505261 71.155597-0.075725 5.791913-0.268106 11.583826 0.571005 17.383926 4.189416 28.941146 33.405831 48.602951 61.758576 41.443901 23.443945-5.915733 38.885636-25.7822 38.845727-50.15326-0.052189-30.16809-0.831948-60.315714-3.461845-90.375334-2.118244-24.227798-4.548596-48.435129-12.391215-71.690786-0.975211-2.882654-1.291412-5.89629-0.635473-8.909927 1.877767-8.622378 8.497535-13.635555 18.059308-13.679557 32.506345-0.163729 65.011666-0.343831 97.518011-0.443092 11.120268-0.035816 22.036899-1.059122 32.506345-5.189186 41.358967-16.316617 62.933331-60.626799 50.42546-103.377462-5.192256-17.748223-11.304464-35.184337-17.524119-52.580542C772.947174 229.589234 749.34257 169.498648 725.886345 109.350756c-3.209088-8.226359-8.918114-14.290471-15.920598-19.323091-10.349719-7.442506-22.233374-9.353019-34.596959-9.353019-81.541131-0.016373-163.085332-0.008186-244.629533-0.01228-1.563612 0-3.13848 0.031722-4.685719-0.1361-12.502755-1.367137-19.310811-14.937201-12.751419-25.558096 3.857864-6.240121 9.821693-8.106632 16.905018-8.102538 82.21242 0.071631 164.428933 0.048095 246.64033 0.048095 20.214391 0 38.838563 5.167696 55.054897 17.535375 10.593266 8.083096 19.48682 17.652032 24.427342 30.371728 8.993838 23.13593 18.119683 46.216601 27.073612 69.368904 19.631106 50.76929 39.09746 101.598956 56.237839 153.284105 4.604878 13.882172 8.874111 27.868721 9.685593 42.578748C850.526063 381.881756 846.588381 402.775622 836.008418 422.022988L836.008418 422.022988zM305.891805 80.574363c-20.774139 0.127913-41.552371 0.048095-62.326511 0.071631-20.594037 0.024559-35.352159 14.530948-35.363416 35.088146-0.060375 89.132016-0.064468 178.264033 0.004093 267.390933 0.011256 20.230764 14.546298 34.884508 34.756595 35.056424 21.217231 0.184195 42.442648-0.019443 63.663972 0.115634 2.918469 0.016373 2.874467-1.334391 2.874467-3.433192-0.035816-55.178717-0.027629-110.357434-0.027629-165.532057 0-55.066153-0.032746-110.129236 0.079818-165.19539C309.561381 81.102389 308.729433 80.55492 305.891805 80.574363L305.891805 80.574363zM305.891805 80.574363"  horiz-adv-x="1024" />

    
    <glyph glyph-name="zhengwenzhenggao" unicode="&#58958;" d="M898.7904 895.5648 125.24544 895.5648C56.32 895.5648 0.45056 839.69536 0.45056 770.76992l0-773.54496c0-68.9152 55.86944-124.78976 124.8-124.78976l773.54496 0c68.92032 0 124.75904 55.87456 124.75904 124.78976L1023.55456 770.76992C1023.54944 839.69536 967.71072 895.5648 898.7904 895.5648zM776.5248 139.06944c0-36.93056-30.93504-66.9952-68.92544-66.9952L293.9904 72.07424c-38.02112 0-68.95616 30.06464-68.95616 66.9952L225.03424 585.64608c0 36.95616 30.93504 66.99008 68.95616 66.99008l321.67424 0c12.7232 0 22.97856-9.98912 22.97856-22.30784s-10.25536-22.33856-22.97856-22.33856L293.9904 607.98976c-12.65152 0-22.97344-10.02496-22.97344-22.33856l0-446.57664c0-12.3136 10.32192-22.33856 22.97344-22.33856l413.60896 0c12.68736 0 22.96832 10.02496 22.96832 22.33856L730.56768 496.33792c0 12.31872 10.26048 22.30784 22.97856 22.30784 12.71296 0 22.97344-9.98912 22.97344-22.30784L776.51968 139.06944zM477.824 429.34272l-137.8816 0c-12.68736 0-22.97344 9.98912-22.97344 22.34368 0 12.31872 10.28608 22.30784 22.97344 22.30784l137.8816 0c12.65664 0 22.97344-9.98912 22.97344-22.30784C500.79744 439.33696 490.47552 429.34272 477.824 429.34272zM615.66464 340.04992c12.7232 0 22.97856-9.98912 22.97856-22.33856 0-12.35968-10.25536-22.3488-22.97856-22.3488L339.9424 295.36256c-12.68736 0-22.97344 9.98912-22.97344 22.3488 0 12.34944 10.28608 22.33856 22.97344 22.33856L615.66464 340.04992zM817.21344 657.79712l-228.38272-221.88544c-4.4544-4.39296-10.34752-6.56384-16.25088-6.56384-5.8624 0-11.75552 2.2016-16.20992 6.56384-9.02144 8.71936-9.02144 22.84032 0 31.5648l228.352 221.88544c8.9856 8.7552 23.50592 8.7552 32.49664 0C826.16832 680.63744 826.16832 666.5216 817.21344 657.79712z"  horiz-adv-x="1024" />

    
    <glyph glyph-name="qie" unicode="&#59095;" d="M840.408635 273.097144c-7.853875-93.009324-69.343321-199.738114-153.005766-265.585821-1.162476-0.916882-2.552126-1.362021-3.924379-1.362021-0.334621 0-0.64366 0.166799-0.975211 0.218988l0-40.165792c0-16.539698-13.467733-29.991058-30.015617-29.991058-9.644661 0-18.148335 4.65195-23.641443 11.744485-5.487991-7.092535-13.986549-11.744485-23.62814-11.744485-9.650801 0-18.160615 4.653997-23.655769 11.749602-5.493108-7.095605-13.998829-11.749602-23.64656-11.749602-16.540721 0-30.001291 13.45136-30.001291 29.991058l0 42.663682c0 16.537651 13.461593 29.990035 30.001291 29.990035 9.647731 0 18.153452-4.65502 23.64656-11.749602 5.495154 7.094582 14.004969 11.749602 23.655769 11.749602 9.641591 0 18.140149-4.652973 23.62814-11.744485 5.492084 7.091512 13.995759 11.744485 23.641443 11.744485 13.150508 0 24.230867-8.5487 28.279067-20.335141 80.430844 63.879889 139.433656 166.393681 146.975423 255.645424 1.341554 15.96153 2.025123 31.868825 2.025123 47.289026 0 28.190039-1.839905 53.339836-5.619998 76.878948-12.885472 80.081896-49.212842 135.77329-110.798479 170.092933 1.187035-5.16565 2.464121-10.368138 3.952009-15.606443 6.17156-21.767769 14.325263-41.048905 24.228821-57.30617 8.909927-14.628162 16.733103-32.380478 23.258727-52.775994 6.605442-20.591991 11.860119-43.936675 15.622816-69.37402 0.077771-0.528026-0.029676-1.025353-0.079818-1.533936 0.346901-1.050935 0.60989-2.13564 0.763386-3.25002 5.246491-37.732369 5.345752-66.113767 5.345752-67.303872-1.955538-85.898369-43.656289-193.273888-103.766318-267.342838-1.25355-1.549286-3.093455-2.351558-4.942569-2.351558-1.403976 0-2.821255 0.464581-4.000104 1.419326-2.724041 2.212388-3.14155 6.218632-0.931209 8.945743 58.471716 72.050989 99.029434 176.320775 100.924597 259.465426 0 0.127913-0.106424 28.598338-5.222955 65.422012-0.197498 1.408069-0.949628 2.734274-2.066055 3.641947l-25.724895 20.845771c-2.125407 1.716084-5.179976 1.688455-7.265474-0.080841l-29.375028-24.920576c-6.90527-5.859451-16.925485-5.846148-23.817452 0.00614l-29.153994 24.744567c-2.12336 1.806135-5.214768 1.811252-7.363711 0L614.612029 366.323409c-6.903224-5.870708-16.925485-5.872754-23.829731 0.00307l-29.145807 24.744567c-2.124384 1.806135-5.215792 1.811252-7.364735 0l-41.036625-34.865065-5.338588 4.526083c-0.001023 0-0.001023 0-0.001023 0-0.002047 0.001023-0.004093 0.002047-0.00614 0.00307l-35.709293 30.325679c-2.136663 1.813299-5.226025 1.809205-7.363711 0.004093l-29.128411-24.741497c-6.903224-5.854335-16.924461-5.867638-23.829731 0.00614l-29.109991 24.732288c-2.14178 1.819438-5.227048 1.809205-7.363711 0.004093l-29.138644-24.741497c-6.918573-5.862521-16.938788-5.856381-23.830755 0.00307l-29.135574 24.738427c-2.134617 1.811252-5.228071 1.811252-7.363711 0l-28.940123-24.582885c-1.067308-0.906649-1.781576-2.217505-1.968841-3.598968-4.631484-35.101449-4.724605-61.692061-4.724605-61.95505 2.00568-82.887802 42.582841-187.027627 100.966553-258.970146 2.210341-2.730181 1.795902-6.735401-0.931209-8.943696-1.174756-0.957815-2.596128-1.423419-3.999081-1.423419-1.851161 0-3.687996 0.803295-4.942569 2.349511-60.017932 73.962525-101.738126 181.196829-103.811344 266.844487 0 1.277086 0.094144 27.849278 4.836145 63.767326 0.144286 1.085728 0.394996 2.143826 0.722454 3.172249-0.049119 0.496304-0.161682 0.979304-0.088004 1.49505 4.00522 28.343535 9.816576 54.094012 17.274432 76.54228 6.340405 19.129686 13.870916 35.869952 22.372543 49.76338 10.653641 17.369599 19.297508 38.382169 25.693172 62.455447 0.301875 1.144056 0.531096 2.361791 0.822738 3.517103-58.214866-36.674271-94.809319-93.421716-108.739587-168.939667-4.13518-22.37459-6.226818-46.297442-6.226818-71.103408 0-17.121959 0.763386-34.652218 2.25946-52.106752 7.246031-84.278475 60.266595-179.630147 135.080511-242.917542 2.682086-2.266623 3.01773-6.279007 0.75213-8.963139-1.25969-1.483794-3.055592-2.24718-4.862751-2.24718-1.446955 0-2.90619 0.491187-4.097318 1.500167-77.254501 65.348334-132.024919 164.083056-139.539057 251.54299-1.533936 17.811668-2.310625 35.710316-2.310625 53.192479 0 25.578562 2.167363 50.27708 6.439666 73.410963 15.325034 83.077114 56.919361 144.646378 123.630738 182.985568 0.453325 0.25992 0.946558 0.336668 1.427512 0.474814 3.577478 17.990746 5.996574 37.104059 7.128351 57.146535l-0.093121 1.274016c-0.056282 0.99363-0.104377 1.979074-0.104377 2.977821 0 5.310959 0.35918 10.393721 0.7552 15.564487l-0.029676 0.74599-0.427742 19.22383 2.495844-3.208065c15.391549 92.090395 94.205569 159.741167 189.267645 159.741167 93.063559 0 172.999123-68.408019 189.018981-158.602228l2.781346 4.116761-0.25378-21.288862c-0.007163-0.076748-0.056282-2.373047 0.01228-6.134721l0.187265-2.891863c0.161682-2.408863 0.316202-4.822842 0.316202-7.265474 0-0.488117-0.024559-0.972141-0.050142-1.458211l-0.030699-0.782829c0.677429-13.815657 2.356674-32.645514 6.106068-53.233412 0.592494-0.109494 1.191128-0.204661 1.755993-0.493234 69.932746-35.899628 110.769826-95.893001 124.853589-183.406147 3.885494-24.217564 5.780657-50.0233 5.780657-78.895885C842.4839 305.680237 841.789075 289.409668 840.408635 273.097144zM575.202461 8.865157c0 9.524934-7.754614 17.274432-17.286712 17.274432-9.531074 0-17.285688-7.749498-17.285688-17.274432l0-42.663682c0-9.524934 7.754614-17.273409 17.285688-17.273409 9.532097 0 17.286712 7.749498 17.286712 17.273409L575.202461 8.865157zM622.48637 8.865157c0 9.524934-7.749498 17.274432-17.267269 17.274432-9.53619 0-17.298991-7.749498-17.298991-17.274432l0-42.663682c0-9.524934 7.762801-17.273409 17.298991-17.273409 9.517771 0 17.267269 7.749498 17.267269 17.273409L622.48637 8.865157zM669.787676 8.865157c0 9.524934-7.759731 17.274432-17.298991 17.274432-9.530051 0-17.285688-7.749498-17.285688-17.274432l0-42.663682c0-9.524934 7.754614-17.273409 17.285688-17.273409 9.53926 0 17.298991 7.749498 17.298991 17.273409L669.787676 8.865157zM705.069227 549.343769c-9.494235 33.42425-12.742209 66.213028-13.791098 87.829348-0.007163 0.799202 0.017396 1.288343 0.042979 1.77646l0.030699 0.773619c0 2.157129-0.150426 4.28663-0.291642 6.41306l-0.205685 3.297093c-0.024559 1.334391-0.037862 2.490727-0.037862 3.461845l-0.2415 2.314719C682.691567 747.098715 604.25003 819.075003 512.00614 819.075003c-92.119047 0-170.552397-71.846328-178.556699-163.564239l-0.051165-0.713244c-0.396019-5.40408-0.738827-10.214642-0.738827-15.074324 0-0.76134 0.044002-1.51347 0.088004-2.270716 0.041956-0.726547 0.081864-1.452071 0.098237-2.183735-1.626034-29.145807-5.716188-56.075133-12.175297-80.546477-6.711865-25.273616-15.844873-47.424102-27.14729-65.839521-7.990998-13.05841-15.106046-28.916587-21.141506-47.127344-5.712095-17.186428-10.389628-36.489052-14.039761-57.427944l19.342534 16.430204c6.904247 5.867638 16.926508 5.864568 23.830755 0l29.132504-24.738427c2.13564-1.812275 5.229095-1.819438 7.363711-0.002047l29.140691 24.741497c6.89913 5.857405 16.919345 5.872754 23.830755-0.004093l29.107945-24.734334c2.14178-1.825578 5.234211-1.815345 7.363711-0.002047l29.127388 24.738427c6.90527 5.866614 16.927531 5.870708 23.830755-0.002047l32.812313-27.865651 32.812313 27.871791c6.904247 5.873778 16.925485 5.867638 23.830755 0.004093l29.145807-24.746614c2.14792-1.817392 5.239328-1.814322 7.362688-0.00307l29.122271 24.74559c6.904247 5.873778 16.926508 5.867638 23.829731 0.004093l29.153994-24.744567c2.12336-1.807159 5.227048-1.812275 7.363711 0l29.374004 24.921599c6.744611 5.718235 16.622586 5.830799 23.496134 0.260943l16.387225-13.280468c-3.330862 18.404162-7.479345 35.504632-12.426007 50.938136-6.220678 19.438725-13.622252 36.273135-22.011316 50.03865C720.170157 506.133641 711.548802 526.472875 705.069227 549.343769zM613.079116 669.800211c-8.41874 0-16.033162 3.122107-22.039969 8.112772 0.910743-9.662057-1.067308-18.671245-6.118348-27.133987l-52.65422-88.415702c-5.097088-8.627495-12.58462-13.586436-20.533662-13.586436-8.060583 0-15.360849 4.827959-20.558222 13.599739l-52.65422 88.404446c-4.604878 7.735172-6.390547 17.152658-5.568832 27.055193-5.991458-4.944616-13.56904-8.035-21.943778-8.035-19.163455 0-34.684964 15.529695-34.684964 34.684964 0 19.146059 17.193591 42.488697 34.684964 34.6778 19.119453-8.544607 31.476899-18.11559 34.108842-29.897937 12.910031 12.685927 50.198286 27.903513 66.615187 27.903513 13.688767 0 54.82363-17.257036 67.131957-28.735461 2.232854 12.157901 14.650675 21.988804 34.214243 30.728862 17.48421 7.810896 34.6778-15.530718 34.6778-34.6778C647.75794 685.329906 632.234385 669.800211 613.079116 669.800211zM411.007865 719.739601c-8.432043 0-15.262612-6.836709-15.262612-15.254425 0-8.419763 6.830569-15.255449 15.262612-15.255449 8.42488 0 15.254425 6.836709 15.254425 15.255449C426.26229 712.902892 419.433768 719.739601 411.007865 719.739601zM570.732659 698.793546c-4.203742 5.792936-45.780673 25.659403-58.999742 25.659403-16.871249 0-55.087643-18.770506-59.043744-25.698289-8.43102-14.770402-9.67229-30.658254-3.239787-41.46539l52.66036-88.419795c2.781346-4.688789 6.284123-7.373944 9.623171-7.373944 3.333932 0 6.829546 2.680039 9.593496 7.355525l52.67264 88.439238C581.044516 669.09413 580.001767 682.283524 570.732659 698.793546zM613.079116 719.739601c-8.433066 0-15.262612-6.836709-15.262612-15.254425 0-8.419763 6.829546-15.255449 15.262612-15.255449 8.432043 0 15.262612 6.836709 15.262612 15.255449C628.341728 712.902892 621.511159 719.739601 613.079116 719.739601zM371.504152 38.854169c9.639544 0 18.137079-4.652973 23.624047-11.746532 5.495154 7.093559 14.002922 11.746532 23.651676 11.746532 9.646708 0 18.152429-4.653997 23.644513-11.746532 5.491061 7.092535 13.993712 11.746532 23.639396 11.746532 16.540721 0 30.001291-13.452383 30.001291-29.990035l0-42.663682c0-16.539698-13.461593-29.991058-30.001291-29.991058-9.645684 0-18.148335 4.652973-23.639396 11.746532-5.493108-7.093559-13.997805-11.746532-23.644513-11.746532-9.648754 0-18.157545 4.652973-23.651676 11.746532-5.486968-7.093559-13.984503-11.746532-23.624047-11.746532-16.541745 0-30.003338 13.45136-30.003338 29.991058l0 42.663682C341.501838 25.402809 354.963431 38.854169 371.504152 38.854169zM448.784236-33.798525c0-9.524934 7.749498-17.273409 17.280572-17.273409 9.530051 0 17.285688 7.749498 17.285688 17.273409l0 42.663682c0 9.524934-7.756661 17.274432-17.285688 17.274432-9.531074 0-17.280572-7.749498-17.280572-17.274432L448.784236-33.798525zM401.481907-33.798525c0-9.524934 7.761778-17.273409 17.298991-17.273409 9.532097 0 17.287735 7.749498 17.287735 17.273409l0 42.663682c0 9.524934-7.755638 17.274432-17.287735 17.274432-9.53619 0-17.298991-7.749498-17.298991-17.274432L401.481907-33.798525zM354.218464-33.798525c0-9.524934 7.755638-17.273409 17.286712-17.273409 9.519818 0 17.262152 7.749498 17.262152 17.273409l0 42.663682c0 9.524934-7.741311 17.274432-17.262152 17.274432-9.531074 0-17.286712-7.749498-17.286712-17.274432L354.218464-33.798525zM506.833327 318.801069c-2.408863 0.068562-4.737908 0.310062-7.048533 0.64059l0.025583 0C502.109746 319.111131 504.424464 318.868607 506.833327 318.801069z"  horiz-adv-x="1024" />

    
    <glyph glyph-name="tubiao17" unicode="&#58896;" d="M943.82592 18.01728l-197.53472 197.85216c-4.28032 4.29568-9.20064 7.56736-14.45376 9.8304 50.2528 63.51872 80.25088 143.7952 80.25088 231.07072 0 205.88032-166.90688 372.76672-372.76672 372.76672S66.56 662.64576 66.56 456.76544c0-205.86496 166.90688-372.77184 372.76672-372.77184 87.35744 0 167.69536 30.06464 231.24992 80.39936 2.26304-5.23264 5.51424-10.1376 9.78432-14.41792l197.5296-197.84704c18.15552-18.20672 47.68768-18.20672 65.88928-0.0512C961.98656-29.75744 961.98656-0.2304 943.82592 18.01728L943.82592 18.01728zM439.32672 177.18784c-154.3936 0-279.57248 125.17888-279.57248 279.57248 0 154.39872 125.17888 279.57248 279.57248 279.57248 154.3936 0 279.57248-125.17888 279.57248-279.57248C718.90432 302.37184 593.72032 177.18784 439.32672 177.18784L439.32672 177.18784z"  horiz-adv-x="1024" />

    
    <glyph glyph-name="draftIcon" unicode="&#58948;" d="M260.438 532.046h228.87c5.647 0 10.173 3.31 10.173 7.301v35.29c0 4.040-4.527 7.252-10.173 7.252h-228.87c-5.647 0-10.173-3.212-10.173-7.252v-35.29c0-3.99 4.527-7.301 10.173-7.301zM499.481 482.204h-249.216v-49.844h249.217v49.844zM260.438 631.732h228.87c5.647 0 10.173 3.31 10.173 7.301v35.29c0 4.040-4.527 7.252-10.173 7.252h-228.87c-5.647 0-10.173-3.212-10.173-7.252v-35.29c0-3.99 4.527-7.3 10.173-7.3zM250.265 232.987h548.276v49.843h-548.276v-49.843zM748.697 880.948h-557.183c-43.905 0-90.778-58.993-90.778-105.868v-806.106c0-46.874 35.581-84.89 79.535-84.89h676.047c43.905 0 91.752 49.65 91.752 96.475v701.016l-199.373 199.373zM848.384 42.863c0-21.514-34.413-59.092-53.98-59.092h-540.001c-19.568 0-53.98 37.578-53.98 59.092v679.357c0 21.514 34.412 59.043 53.98 59.043h394.607v-99.687c0-51.595 40.74-99.686 85.425-99.686h113.948v-539.026zM848.384 681.575h-71.211c-22.342 0-28.475 24.046-28.475 49.844v49.843h45.706c19.567 0 53.98-37.528 53.98-59.043v-40.644zM787.978 183.143h-527.2c-5.791 0-10.513-3.21-10.513-7.252v-35.287c0-3.992 4.722-7.304 10.514-7.304h527.199c5.841 0 10.563 3.31 10.563 7.304v35.286c0 4.041-4.722 7.252-10.563 7.252z"  horiz-adv-x="1024" />

    
    <glyph glyph-name="ren" unicode="&#58930;" d="M499.673 432.23c128.076 0 231.9 103.823 231.9 231.898C731.572 792.204 627.748 896 499.672 896c-128.076 0-231.9-103.796-231.9-231.872 0-128.075 103.824-231.899 231.9-231.899z m0.011-549.053c237.434 0.557 397.8 0.529 404.503 142.872 6.703 142.344-87.442 264.134-159.893 323.486-72.451 59.351-125.462 56.653-125.462 56.653l-119.148 0.418h-0.028l-119.148-0.418s-53.01 2.698-125.461-56.653C182.596 290.183 88.45 168.393 95.154 26.049c6.73-142.343 167.068-142.315 404.502-142.872h0.028z"  horiz-adv-x="1024" />

    
    <glyph glyph-name="fangzi" unicode="&#58901;" d="M608-64c-17.7 0-32 14.3-32 32V256H448v-288c0-17.7-14.3-32-32-32s-32 14.3-32 32V288c0 17.7 14.3 32 32 32h192c17.7 0 32-14.3 32-32v-320c0-17.7-14.3-32-32-32zM864-64H608c-17.7 0-32 14.3-32 32s14.3 32 32 32h224V352c0 17.7 14.3 32 32 32h37.5c19.8 0 27.6 15.1 29.6 19.8s7.1 20.9-6.9 34.9L622.9 739.9C605 757.7 580.3 768 555 768h-86c-25.3 0-50-10.3-67.9-28.1L99.9 438.6c-14-14-8.9-30.3-6.9-34.9s9.8-19.8 29.6-19.8H160c17.7 0 32-14.3 32-32v-352h224c17.7 0 32-14.3 32-32s-14.3-32-32-32H160c-17.7 0-32 14.3-32 32V320h-5.5c-39.6 0-73.6 22.7-88.7 59.3s-7.2 76.6 20.8 104.6l301.3 301.3C386.1 815.4 426.3 832 469 832h86c42.8 0 82.9-16.6 113.1-46.9l301.3-301.3c28-28 35.9-68.1 20.8-104.6S941.1 320 901.5 320H896v-352c0-17.7-14.3-32-32-32z"  horiz-adv-x="1024" />

    
    <glyph glyph-name="fanhui" unicode="&#59551;" d="M210.823529 392.131765l481.882353 481.882353L784.504471 782.155294 394.420706 392.131765l390.083765-390.083765L692.705882-89.750588z"  horiz-adv-x="1024" />

    
    <glyph glyph-name="huabi" unicode="&#58945;" d="M1050.016028 666.612734c6.792978 21.290187 24.852358 77.70504-12.426179 104.214222a69.338079 69.338079 0 0 1-41.420597 12.011973c-28.745894 0-72.486045-17.065286-122.522126-45.645498a37.941267 37.941267 0 0 1-7.124342 10.023784A507.81652 507.81652 0 0 1 0.003894 388.266321a503.177413 503.177413 0 0 1 159.552139-369.554566 38.18979 38.18979 0 0 1 26.3435-10.437991h2.816601a507.567996 507.567996 0 0 0-61.468166-52.189952 38.438314 38.438314 0 0 1 12.591861-68.67535 597.864898 597.864898 0 0 1 135.196829-15.325621c79.11334 0 144.392201 16.568239 194.676806 49.704717v-2.982283a38.438314 38.438314 0 0 1 38.438314-38.438314 508.396408 508.396408 0 0 1 507.81652 507.816519 38.438314 38.438314 0 1 1-76.793787 0 431.436939 431.436939 0 0 0-425.555214-430.774209c39.51525 39.266726 59.728501 83.586765 57.988836 127.575439a128.403851 128.403851 0 0 1-17.065286 57.988836 115.480625 115.480625 0 0 1 36.284443-5.633201c175.954696 0.082841 415.697112 393.164307 459.188738 529.272389z m-760.647844-654.445434C306.516312 42.238654 366.824701 139.659898 428.127185 139.659898A67.846938 67.846938 0 0 0 463.91458 128.310654a60.059866 60.059866 0 0 0 30.48556-47.053798c1.325459-27.337594-19.219157-59.397136-56.414853-87.977348s-93.279185-44.485721-163.114312-44.485721c-11.597767 0-23.60974 0.414206-35.870237 1.325459a302.950247 302.950247 0 0 1 50.284605 62.213737z m270.890705 306.263895c68.592509 165.682388 333.187283 360.442035 420.750425 385.04587-8.284119-31.562495-36.284443-101.31478-99.409433-202.132514C776.474406 334.999434 654.449327 214.216973 590.413084 214.216973a36.698649 36.698649 0 0 0-27.668959 11.84629c-19.136316 19.136316-19.964728 50.284605-2.485236 92.367932zM76.79768 388.266321a430.774209 430.774209 0 0 0 732.316156 308.00356C682.615333 608.955263 539.879955 469.947739 489.263986 347.839819c-27.006229-65.19602-20.958822-111.587088-4.556266-143.729472a137.930588 137.930588 0 0 1-56.663377 12.343338C332.942653 216.453685 259.711037 114.80754 223.675118 52.676644a38.106949 38.106949 0 0 1-11.514926 21.952917A427.046355 427.046355 0 0 0 76.79768 388.266321zM571.608133 594.955101a99.409433 99.409433 0 1 1-99.409433 99.409433 99.409433 99.409433 0 0 1 99.409433-99.409433z m0 76.793787a22.532805 22.532805 0 1 0 22.532804 22.532804A22.532805 22.532805 0 0 0 571.608133 671.748888zM345.203149 319.259607a99.409433 99.409433 0 1 1-99.409433-99.409433 99.409433 99.409433 0 0 1 99.409433 99.409433z m-99.409433 22.532805A22.532805 22.532805 0 1 0 223.675118 319.259607a22.532805 22.532805 0 0 0 22.20144 22.532805zM318.528285 443.604239a132.545911 132.545911 0 1 1-132.545911 132.545911 132.545911 132.545911 0 0 1 132.545911-132.545911z m0 188.546558a55.834965 55.834965 0 1 0-55.834965-55.834965 55.917806 55.917806 0 0 0 55.834965 55.752124z"  horiz-adv-x="1060" />

    
    <glyph glyph-name="shubao" unicode="&#58881;" d="M848.599 665.236H681.384v64.869c0 41.371-33.702 75.036-75.117 75.036H395.055c-41.416 0-75.107-33.665-75.107-75.036v-64.869H174.961c-61.04 0-110.69-49.606-110.69-110.57v-506.342c0-60.964 49.65-110.57 110.69-110.57h673.638c61.04 0 110.69 49.606 110.69 110.57V554.666c0 60.964-49.65 110.57-110.69 110.57z m-485.132 64.87c0 17.406 14.173 31.564 31.588 31.564h211.212c17.425 0 31.598-14.158 31.598-31.564v-64.869H363.467v64.869zM174.961 621.764h673.638c37.038 0 67.17-30.099 67.17-67.098v-129.292H107.791V554.666c0 36.999 30.132 67.098 67.17 67.098z m399.538-262.532c0-30.885-25.138-55.996-56.047-55.996-30.908 0-56.057 25.111-56.057 55.996 0 7.926 1.769 15.577 4.924 22.67h102.254c3.156-7.092 4.926-14.744 4.926-22.67z m274.1-378.006H174.961c-37.038 0-67.17 30.1-67.17 67.098V381.902h313.687a99.873 99.873 0 0 1-2.601-22.67c0-54.85 44.667-99.469 99.576-99.469 54.899 0 99.566 44.619 99.566 99.469 0 7.718-0.887 15.309-2.601 22.67h300.353v-333.578c-0.002-36.998-30.134-67.098-67.172-67.098z"  horiz-adv-x="1024" />

    
    <glyph glyph-name="menu" unicode="&#58890;" d="M832.2 631.4H192.3c-35.2 0-64 28.8-64 64s28.8 64 64 64h639.8c35.2 0 64-28.8 64-64 0.1-35.2-28.7-64-63.9-64zM832.2 318.1H196.1c-35.2 0-64 28.8-64 64s28.8 64 64 64h636.1c35.2 0 64-28.8 64-64s-28.8-64-64-64zM832.2-0.8999999999999773H192.3c-35.2 0-64 28.8-64 64s28.8 64 64 64h639.8c35.2 0 64-28.8 64-64 0.1-35.2-28.7-64-63.9-64z"  horiz-adv-x="1024" />

    
    <glyph glyph-name="sheji" unicode="&#58983;" d="M476.2-9.4H218.8V463.1l-11.4-5.7C190.3 446 163.1 440.3 146 446c-22.8 0-39.8 22.8-51.2 45.5l-22.8 57C54.9 594 66.3 650.9 94.8 679.4l136.6 98.1h182.1V759c0-5.7 0-108.2 74-108.2s79.7 102.5 79.7 108.2v18.5h176.5L886 673.7c28.5-22.8 39.8-68.3 22.8-102.5l-28.5-74c-11.4-22.8-28.5-45.5-56.9-51.2-22.8-5.7-45.5 0-62.6 11.4V446c0-17.1-10.3-28.5-27.3-28.5s-25.1 17.1-25.1 28.5V568l90-74h17.1c5.7 0 11.4 5.7 17.1 17.1l35.1 82.9c5.7 11.4 0 28.5-5.7 34.2L727.7 730.6H607.4C601.7 673.7 578.6 614 487.6 614c-91.1 0-108.4 59.7-119.8 116.6l-122.6 3.3-120.6-100.1c-11.4-5.7-22.8-39.8-11.4-62.6l30.6-68c5.7-11.4 11.4-17.1 17.1-17.1h5.7l98 70.8v-518.3h211.6c17.1 0 28.5-13.7 28.5-25.1-0.1-11.4-11.5-22.9-28.5-22.9zM664-9.4h193.5c17.1 45.5 56.9 74 102.5 85.4V195.5c0 62.6 0 62.6-62.6 62.6h-28.5c0 56.9-45.5 102.5-102.5 102.5-56.9 0-102.5-45.5-102.5-102.5h-28.5c-62.6 0-62.6-11.4-62.6-62.6V76c34.3-11.4 74.1-39.8 91.2-85.4z m96.8 313.1c22.8 0 45.5-22.8 45.5-45.5h-91.1c0 28.4 22.8 45.5 45.6 45.5zM897.4-9.4c62.6 0 62.6-5.7 62.6 56.9-28.5-11.3-51.2-28.4-62.6-56.9zM624.2-9.4c-11.4 22.8-34.2 39.8-62.6 51.2 5.6-45.5 5.6-51.2 62.6-51.2z"  horiz-adv-x="1024" />

    
    <glyph glyph-name="huihuachuangzuo" unicode="&#59008;" d="M491.008 56.32c-224.768-53.248-428.032 100.864-435.712 331.776-2.048 66.048 8.704 131.584 50.688 185.856 38.4 49.664 97.28 44.544 129.536-8.704 7.168-11.776 15.36-24.064 26.112-32.768 36.352-30.208 77.312-31.232 118.272-12.288 40.96 19.456 54.784 55.296 52.736 98.816-3.584 92.16 41.984 123.904 124.416 82.944 36.352-17.92 68.608-43.008 102.912-65.024 26.624 47.616 27.136 48.64-18.432 78.848-25.088 16.896-51.712 32.256-79.36 44.032-103.424 44.032-190.976-19.968-182.784-132.096 2.048-28.16-1.536-52.224-32.256-61.952-30.72-9.728-51.712 3.072-66.56 30.208-20.992 38.4-53.76 60.416-97.28 64.512-65.024 5.632-117.248-29.696-148.48-100.352-92.672-209.408 7.68-456.704 220.672-541.184 87.552-34.816 176.128-37.376 269.824-9.216-4.608 19.456-8.192 35.328-12.288 51.2-10.752-2.048-15.872-3.584-22.016-4.608zM1013.76 786.432c0 13.312-14.848 35.84-25.6 37.376-24.064 3.584-26.112-17.92-27.648-38.4-4.608-61.44-5.632-124.416-18.944-184.32-15.36-71.168-40.96-139.776-62.976-210.944-61.44 19.456-113.152 35.84-168.448 53.248 2.048 11.776 2.56 19.968 4.608 27.648 30.208 124.928 79.36 241.664 158.72 344.064 11.776 15.36 20.992 33.792 1.536 44.544-9.728 5.12-35.328-2.048-43.008-11.776-27.648-35.84-53.76-73.728-75.264-113.664-65.536-122.88-107.008-253.44-116.224-393.216-1.536-28.16 8.704-43.008 35.84-50.688 42.496-12.288 84.992-25.088 126.464-40.96 29.696-11.776 48.64-3.584 64.512 22.016 99.328 157.696 149.504 329.216 146.432 515.072z m-190.976-485.376c-37.888 12.288-76.288 22.528-112.128 38.4-10.24 4.608-11.776 27.136-17.408 40.96 3.072 2.56 6.144 5.632 9.216 8.192 47.616-14.848 95.744-29.696 146.432-45.568-9.728-15.872-16.896-27.648-26.112-41.984z m-133.12-61.44c-104.448 2.56-164.864-79.36-135.68-170.496 15.872-49.664 9.216-93.184-14.848-137.728-6.656-12.8-5.632-29.184-7.68-44.544 16.384-1.536 34.304-8.192 48.64-3.584 82.944 28.672 150.016 79.872 202.24 150.016 30.72 40.96 32.256 86.528 9.216 132.096-24.064 47.104-62.464 72.192-101.888 74.24z m50.176-172.032c-32.256-45.056-73.728-80.384-118.272-104.96-6.144 45.056-10.752 87.552-18.432 129.024-7.168 38.912 4.096 69.12 36.864 86.016 29.184 14.848 66.56 8.192 89.6-16.896 24.576-26.112 30.208-65.024 10.24-93.184zM218.624 428.032c0.512 25.088-20.992 47.616-46.08 48.128-24.576 0.512-48.128-21.504-49.664-45.568-1.536-26.112 22.016-50.176 48.64-49.664 25.6 0 47.104 21.504 47.104 47.104z m13.312-224.256c25.6 0.512 46.592 20.992 47.104 46.08 0.512 25.088-20.48 47.616-46.08 47.616-27.648 0.512-49.152-20.992-48.64-48.128 1.024-25.6 22.016-46.08 47.616-45.568z m276.48 362.496c0-25.088 20.992-45.568 47.104-46.08 24.576-0.512 47.616 21.504 48.128 45.568 0.512 25.088-20.48 47.616-45.568 48.128-26.112 1.024-49.664-21.504-49.664-47.616z m-154.624-399.36c-0.512-27.136 21.504-49.152 48.64-48.128 25.6 1.024 46.08 22.016 46.08 47.616-0.512 26.112-20.992 46.08-47.104 46.08-26.624 0-47.104-19.968-47.616-45.568z"  horiz-adv-x="1024" />

    
    <glyph glyph-name="cart-copy" unicode="&#58627;" d="M332.8 105.47199999999998q19.456 0 36.864-7.168t30.208-19.968 20.48-30.208 7.68-36.864-7.68-36.864-20.48-30.208-30.208-20.48-36.864-7.68q-20.48 0-37.888 7.68t-30.208 20.48-20.48 30.208-7.68 36.864 7.68 36.864 20.48 30.208 30.208 19.968 37.888 7.168zM758.784 103.42399999999998q19.456 0 37.376-7.168t30.72-19.968 20.48-30.208 7.68-36.864-7.68-36.864-20.48-30.208-30.72-20.48-37.376-7.68-36.864 7.68-30.208 20.48-20.48 30.208-7.68 36.864 7.68 36.864 20.48 30.208 30.208 19.968 36.864 7.168zM930.816 685.056q28.672 0 44.544-7.68t22.528-18.944 6.144-24.064-3.584-22.016-13.312-37.888-22.016-62.976-23.552-68.096-18.944-53.248q-13.312-40.96-33.28-56.832t-49.664-15.872l-35.84 0-65.536 0-86.016 0-96.256 0-253.952 0 14.336-92.16 517.12 0q49.152 0 49.152-41.984 0-20.48-9.728-35.84t-38.4-14.336l-49.152 0-94.208 0-118.784 0-119.808 0-99.328 0-55.296 0q-20.48 0-34.304 9.216t-23.04 24.064-14.848 32.256-8.704 32.768q-1.024 6.144-5.632 29.696t-11.264 58.88-14.848 78.848-16.384 87.552q-19.456 103.424-44.032 230.4l-76.8 0q-15.36 0-25.6 7.68t-16.896 18.432-9.216 23.04-2.56 22.528q0 20.48 13.824 33.792t37.376 12.288l103.424 0q20.48 0 32.768-6.144t19.456-15.36 10.24-18.944 5.12-16.896q2.048-8.192 4.096-23.04t4.096-30.208q3.072-18.432 6.144-38.912l700.416 0zM892.928 593.9200000000001l-641.024 2.048 35.84-185.344 535.552-1.024z"  horiz-adv-x="1028" />

    
    <glyph glyph-name="leimupinleifenleileibie--" unicode="&#58911;" d="M352.903955 896h-231.41243C52.067797 896 0 843.932203 0 780.293785v-231.412429c0-63.638418 52.067797-115.706215 115.706215-115.706215h231.412429c63.638418 0 115.706215 52.067797 115.706215 115.706215V780.293785c5.785311 63.638418-46.282486 115.706215-109.920904 115.706215z m46.282486-341.333333c0-34.711864-28.926554-57.853107-57.853108-57.853108H133.062147c-34.711864 0-57.853107 28.926554-57.853107 57.853108V768.723164c0 34.711864 28.926554 57.853107 57.853107 57.853107h208.271186c34.711864 0 57.853107-28.926554 57.853108-57.853107v-214.056497zM902.508475 896h-231.41243c-63.638418 0-115.706215-52.067797-115.706214-115.706215v-231.412429c0-63.638418 52.067797-115.706215 115.706214-115.706215h231.41243c63.638418 0 115.706215 52.067797 115.706214 115.706215V780.293785c5.785311 63.638418-52.067797 115.706215-115.706214 115.706215z m52.067796-341.333333c0-34.711864-28.926554-57.853107-57.853107-57.853108h-208.271187c-34.711864 0-57.853107 28.926554-57.853107 57.853108V768.723164c0 34.711864 28.926554 57.853107 57.853107 57.853107h208.271187c34.711864 0 57.853107-28.926554 57.853107-57.853107v-214.056497zM352.903955 340.610169h-231.41243c-63.638418 0-115.706215-52.067797-115.706214-115.706214v-231.41243c0-63.638418 52.067797-115.706215 115.706214-115.706214h231.41243c63.638418 0 115.706215 52.067797 115.706214 115.706214v231.41243c0 63.638418-52.067797 115.706215-115.706214 115.706214z m46.282486-341.333333c0-34.711864-28.926554-57.853107-57.853108-57.853107H133.062147c-34.711864 0-57.853107 28.926554-57.853107 57.853107v208.271187c0 34.711864 28.926554 57.853107 57.853107 57.853107h208.271186c34.711864 0 57.853107-28.926554 57.853108-57.853107v-208.271187zM902.508475 340.610169h-231.41243c-63.638418 0-115.706215-52.067797-115.706214-115.706214v-231.41243c0-63.638418 52.067797-115.706215 115.706214-115.706214h231.41243c63.638418 0 115.706215 52.067797 115.706214 115.706214v231.41243c5.785311 63.638418-52.067797 115.706215-115.706214 115.706214z m52.067796-341.333333c0-34.711864-28.926554-57.853107-57.853107-57.853107h-208.271187c-34.711864 0-57.853107 28.926554-57.853107 57.853107v208.271187c0 34.711864 28.926554 57.853107 57.853107 57.853107h208.271187c34.711864 0 57.853107-28.926554 57.853107-57.853107v-208.271187z"  horiz-adv-x="1024" />

    


  </font>
</defs>
</svg>
